inDegrees=no
num_controls=7
num_derivatives=13
num_iterations=62
num_multipliers=7
num_parameters=0
num_slacks=7
num_states=26
objective=4.768781
objective_accelerations=0.464826
objective_balance=0.014678
objective_effort=0.138691
objective_height=4.123349
objective_ligament=0.027237
solver_duration=696.810314
status=Solve_Succeeded
success=true
DataType=double
version=3
OpenSimVersion=4.4-2022-07-23-0e9fedc
endheader
time	/jointset/ground_pelvis/pelvis_tilt/value	/jointset/ground_pelvis/pelvis_tx/value	/jointset/ground_pelvis/pelvis_ty/value	/jointset/hip_l/hip_flexion_l/value	/jointset/hip_l/hip_adduction_l/value	/jointset/hip_l/hip_rotation_l/value	/jointset/back/lumbar_extension/value	/jointset/patellofemoral_l/patellar_flexion_l/value	/jointset/knee_l/knee_flexion_l/value	/jointset/knee_l/knee_adduction_l/value	/jointset/knee_l/knee_rotation_l/value	/jointset/ankle_l/ankle_angle_l/value	/jointset/subtalar_l/subtalar_angle_l/value	/jointset/ground_pelvis/pelvis_tilt/speed	/jointset/ground_pelvis/pelvis_tx/speed	/jointset/ground_pelvis/pelvis_ty/speed	/jointset/hip_l/hip_flexion_l/speed	/jointset/hip_l/hip_adduction_l/speed	/jointset/hip_l/hip_rotation_l/speed	/jointset/back/lumbar_extension/speed	/jointset/patellofemoral_l/patellar_flexion_l/speed	/jointset/knee_l/knee_flexion_l/speed	/jointset/knee_l/knee_adduction_l/speed	/jointset/knee_l/knee_rotation_l/speed	/jointset/ankle_l/ankle_angle_l/speed	/jointset/subtalar_l/subtalar_angle_l/speed	/forceset/tau_hip_flexion_l	/forceset/tau_hip_adduction_l	/forceset/tau_hip_rotation_l	/forceset/tau_knee_flexion_l	/forceset/tau_ankle_angle_l	/forceset/tau_subtalar_angle_l	/forceset/tau_lumbar_extension	lambda_cid13_p0	lambda_cid13_p1	lambda_cid13_p2	lambda_cid13_p3	lambda_cid13_p4	lambda_cid13_p5	lambda_cid14_p0	/jointset/ground_pelvis/pelvis_tilt/accel	/jointset/ground_pelvis/pelvis_tx/accel	/jointset/ground_pelvis/pelvis_ty/accel	/jointset/hip_l/hip_flexion_l/accel	/jointset/hip_l/hip_adduction_l/accel	/jointset/hip_l/hip_rotation_l/accel	/jointset/back/lumbar_extension/accel	/jointset/patellofemoral_l/patellar_flexion_l/accel	/jointset/knee_l/knee_flexion_l/accel	/jointset/knee_l/knee_adduction_l/accel	/jointset/knee_l/knee_rotation_l/accel	/jointset/ankle_l/ankle_angle_l/accel	/jointset/subtalar_l/subtalar_angle_l/accel	gamma_cid13_p0	gamma_cid13_p1	gamma_cid13_p2	gamma_cid13_p3	gamma_cid13_p4	gamma_cid13_p5	gamma_cid14_p0
1.5	-0.2623148203344961	0.08077568891148383	0.8237510750540245	0.7959807905104412	-0.3733978162169954	-0.05052157587824321	-0.3076341717280615	0.6867353947600319	0.6867353947600053	-0.102459614364939	-0.1550591945595108	0.258563968548131	0.1288041430443526	0.2999719569860748	0.1952868928517372	0.338081116349833	-1.733338660688536	0.02714723749666521	-0.5081592191561289	0.6172301821833898	-1.84722857876651	-1.847228578766344	-0.1932456858005471	0.1218437934213902	-0.5533502012110446	-0.1650871219624843	-0.09562793546230632	0.03590460826745535	0.01959329120400668	-0.1450259576126907	-0.02286893910545498	-0.01182002192727648	0.1034000865921518	-32.98150638966514	10.95643163181423	-2.082790605546203	-4.697968556961834	-438.6278927651146	-49.10447690606071	-15.38922559289933	0.2150135004148924	0.454777466244923	-0.5245369984852339	-1.03381866253915	0.263149250510029	-0.1785612621939452	1.276853542091497	-1.023626200583418	-1.023626200583299	-0.08164329397362333	0.4800620666327466	-0.2085803806066932	0.4104750470690382	6.206969894894703e-08	3.681303202421227e-06	-1.61004640415598e-06	4.185202226659193e-07	4.416732565116585e-07	2.656403112323398e-06	4.288972537753199e-07
1.51	-0.2593044159470739	0.08275101537705527	0.8271049210838779	0.7785973002261402	-0.3731146756253286	-0.05561409319176003	-0.3013997665422521	0.6682140699871155	0.668214069986993	-0.1043975925965723	-0.1538208763881999	0.2530202207940312	0.1271718685263455	0.3020558676188774	0.1997431581571062	0.3326110629849374	-1.743087617794256	0.02947745373160831	-0.5102575949719341	0.6295214980656926	-1.856758046401189	-1.856758046401152	-0.1943500223897085	0.1258171254912318	-0.5553187200090257	-0.1613546880582986	-0.09198450177908249	0.03380930646042094	0.02024326496655568	-0.1431159243789937	-0.02150711317399543	-0.01320660731496264	0.1002260804512197	-32.50755339954435	11.3941706881151	-2.059520999853051	-4.702976819285076	-436.2967880719149	-48.91143058063493	-16.08359729428924	0.197131169439443	0.4358604143912495	-0.5697200167057241	-0.9046573383917109	0.2172467884042852	-0.2120535265364542	1.185867073303468	-0.87594242502329	-0.875942425042976	-0.1243017643827815	0.3553750770754207	-0.178768802136815	0.35612160231909	4.044109331262983e-08	3.903659585178697e-06	-1.438628155042198e-06	4.579899576105133e-07	3.926664569772553e-07	2.656430473150772e-06	4.256410125706441e-07
1.52	-0.256274762188373	0.08476986636602124	0.830401770477845	0.7611244757500287	-0.3728083750756498	-0.06072490982049784	-0.2950463289052133	0.6496057834617347	0.6496057834616896	-0.1063465087780382	-0.1525429436365244	0.2474592316174135	0.1255772171554221	0.3038218312407251	0.2039917975306436	0.3266817891724696	-1.751205499052034	0.0317792291032932	-0.5118190821982118	0.6410366724281835	-1.864620929240348	-1.864620929240441	-0.1954332758987878	0.1297667095576919	-0.5567984857167156	-0.1575624925451073	-0.08834106809580405	0.03171400465315341	0.02089323873071509	-0.1412058911453814	-0.02014528724258811	-0.01459319270298485	0.09705207431036535	-32.03441211989371	11.82775297342679	-2.030677745731428	-4.73268392235263	-434.0036072722142	-48.78330562955741	-16.76782306757519	0.1514240982232587	0.413252279879631	-0.6163810879996126	-0.7076034929505263	0.2574610778583568	-0.07118354428896613	1.121625238129255	-0.6903092414799268	-0.6903092414799218	-0.07742667795691671	0.475312465956424	-0.1108297625472425	0.4224273688707227	2.05506472313771e-08	4.100222898125173e-06	-1.292454197329675e-06	4.913667138361148e-07	3.523024765958948e-07	2.654100438518541e-06	4.228970771913027e-07
1.53	-0.2532291031632039	0.08683008098674616	0.8336370843569191	0.7435788352603609	-0.3724791145860981	-0.06584946056642157	-0.2885818026709868	0.6309274174498952	0.6309274174498501	-0.1083055861170108	-0.1512262120977226	0.2418859262470767	0.1240209348178307	0.3052528677096464	0.208006995748537	0.3203102061910069	-1.757631608256109	0.03406837857453313	-0.5130161995863924	0.6517162998345233	-1.87075812174527	-1.87075812174533	-0.1963700720040059	0.1335616878460997	-0.5577814165112912	-0.1536829304487157	-0.08464836183285106	0.02957469713059536	0.02147734736728563	-0.1393312145290529	-0.01884026792711996	-0.01613288158237073	0.09381927142000392	-31.59962587388859	12.34138625239914	-2.022413024828169	-4.676284337760162	-431.8219708206445	-48.53122051142023	-17.43822945628312	0.1303839542178527	0.3891405002538674	-0.6581030851471805	-0.5664605375341273	0.2136786774869689	-0.1323353169277899	1.018290303341824	-0.5313854527773195	-0.5313854527728978	-0.09938424262820655	0.3287547294153046	-0.07971665953893263	0.3718252296198669	2.506995677380363e-09	4.269381074397471e-06	-1.173102299230991e-06	5.182696801727869e-07	3.21121491564642e-07	2.649265671210479e-06	4.206974667513791e-07
1.54	-0.2501708456667239	0.0889291449711503	0.8368065711697976	0.7259776644980034	-0.372127155242731	-0.07098365438237067	-0.2820150484003919	0.6121964872734516	0.6121964872734124	-0.1102735470504854	-0.1498720979320672	0.2363052531844666	0.1225036690211179	0.3063415254981282	0.2117616702664875	0.313516375933268	-1.762311553596122	0.03631899987495007	-0.5137476962083131	0.6614822796991179	-1.875133762161306	-1.875133762161332	-0.1972099947422589	0.1372432348997883	-0.5582720241708927	-0.1497591843684815	-0.08095565556961232	0.02743538960808822	0.02206145600309612	-0.1374565379125098	-0.01753524861157347	-0.01767257046165426	0.09058646852985479	-31.16673521507962	12.85155554072018	-2.009259833951878	-4.640498026327449	-429.6964770376617	-48.34199087683159	-18.09102292341934	0.08294836213471238	0.3611475398920963	-0.7008305432547948	-0.3583707201378845	0.2497554436937817	0.02194060896258272	0.9388957297802649	-0.3379988237029607	-0.3379988237029641	-0.05805200456364017	0.4526262190125347	-0.01236513555123102	0.4312641656397722	-1.634386214541288e-08	4.392736562262206e-06	-1.048639176791022e-06	5.394872988986407e-07	2.809807284941568e-07	2.612207418216157e-06	4.152673912288308e-07
1.55	-0.2471034532261319	0.09106442020864357	0.8399060917875422	0.7083384815005955	-0.3717528156329865	-0.07612308255794108	-0.2753551283281399	0.5934307058224003	0.5934307058222996	-0.1122492370372245	-0.1484818640576609	0.2307221996000061	0.1210259870515696	0.3070832818608922	0.2152461925193213	0.3063271611289843	-1.765242235017265	0.03853542789404083	-0.5140383734899648	0.6703472860180375	-1.877733576573635	-1.877733576573644	-0.1979401218856912	0.1407996248428407	-0.5582590364377317	-0.1457789399084972	-0.07737429612231957	0.02519874657847672	0.02258015336509172	-0.1355096427016952	-0.0164238487176047	-0.01926075556488467	0.08744708380419254	-30.81250341443822	13.39191163769643	-1.995610930928061	-4.537409153266654	-427.7954248184528	-48.12990474463795	-18.72221974505305	0.06174032234339911	0.3351393242300725	-0.7370144257661003	-0.2179952177920556	0.2051950730827037	-0.03925828903666101	0.8371357718869803	-0.1777102345146878	-0.1777102345128924	-0.08166508494267398	0.3064456869637331	0.02021256735751773	0.3805396190062165	-3.612476197355854e-08	4.463319387396494e-06	-9.18287035001314e-07	5.541544084207262e-07	2.305167429002088e-07	2.538022105626799e-06	4.061152581110847e-07
